<?xml version="1.0" encoding="utf-8"?>
<!-- Generator: Adobe Illustrator 23.0.3, SVG Export Plug-In . SVG Version: 6.00 Build 0)  -->
<svg version="1.1" id="Layer_1" xmlns="http://www.w3.org/2000/svg" xmlns:xlink="http://www.w3.org/1999/xlink" x="0px" y="0px"
	 viewBox="0 0 25 9" style="enable-background:new 0 0 25 9;" xml:space="preserve">
<style type="text/css">
	.st0{fill:#FFFFFF;}
	.st1{clip-path:url(#SVGID_4_);fill:url(#SVGID_5_);}
</style>
<rect x="0" class="st0" width="25" height="9"/>
<g>
	<g>
		<defs>
			<rect id="SVGID_1_" x="0" y="0" width="25" height="9"/>
		</defs>
		<clipPath id="SVGID_2_">
			<use xlink:href="#SVGID_1_"  style="overflow:visible;"/>
		</clipPath>
	</g>
</g>
<rect x="0" y="0" class="st0" width="25" height="9"/>
<g>
	<defs>
		<rect id="SVGID_3_" y="0" width="25" height="9"/>
	</defs>
	<clipPath id="SVGID_4_">
		<use xlink:href="#SVGID_3_"  style="overflow:visible;"/>
	</clipPath>
	
		<linearGradient id="SVGID_5_" gradientUnits="userSpaceOnUse" x1="-5.3204" y1="-1.6554" x2="4.0766" y2="46.2244" gradientTransform="matrix(-4.489659e-11 1 -1 -4.489659e-11 27.1059 7.8719)">
		<stop  offset="0" style="stop-color:#FFFF00"/>
		<stop  offset="1" style="stop-color:#FF0000"/>
	</linearGradient>
	<path class="st1" d="M6.52,19.03c0.26-0.14,0.58-0.39,0.96-0.65c-0.1,0.2,1.22-0.71,1.31-0.69l0.64-0.51
		c-0.62,0.56,1.17-0.79,0.71-0.35c-0.73,0.49-1.55,1.08-2.31,1.63c0.73-0.49,0.15-0.02,0.19,0.01c0.69-0.52,0.74-0.41,1.39-0.95
		c0.66-0.35-0.28,0.36,0.7-0.25c0.19-0.18,0.82-0.47,1.3-0.86c0.14,0.01-0.67,0.65-1.46,1.18c0.03-0.06,0.3-0.31-0.3,0.11l0.29-0.01
		c-0.33,0.28-0.46,0.43-1.28,1.02c0.99-0.63-0.52,0.55,0.63-0.21c-0.77,0.47,0.16-0.23,0.26-0.33l0.18-0.1c0,0,0.01-0.01,0.03-0.04
		l1.49-0.96c0.51-0.44-0.95,0.65-1.01,0.58c1.27-0.99,2.2-1.31,2.95-1.95c0.37-0.34-0.91,0.57-1.45,0.87l-0.01,0.03l-0.69,0.32
		c0.45-0.32,0.86-0.56,0.86-0.56c-0.15-0.09,0.55-0.61,0.56-0.83c-0.16,0.13-1.53,1.13-1.83,1.25c-0.39,0.21,0.43-0.38,0.48-0.47
		c0.19-0.1,0.99-0.63,0.51-0.25l0.97-0.68c1.29-0.75,2.17-1.45,2.68-1.59c0.72-0.5,1.2-0.68,1.08-0.48l0.6-0.48
		c1.32-0.8-0.98,0.71,0.16,0.06c-1.24,0.93-2.67,2.05-3.79,2.75c-0.23,0.27,0.48-0.19,0.55-0.14c-1.01,0.77-1.17,0.79-2.22,1.54
		c0.17-0.05,0.69-0.33,1.25-0.77l-0.33,0.36c-0.23,0.16-0.26,0.14-0.25,0.11c-0.19,0.19,0.4-0.13,0.82-0.39
		c-0.06,0.03-0.26,0.14-0.1,0.01c0.33-0.17,0.92-0.49,1.21-0.68c-0.6,0.34,0.59-0.5-0.16-0.07c0.29-0.2,0.87-0.59,0.77-0.47
		c0.58-0.48,0.41-0.43,1.1-0.94c-0.49,0.4,0.31-0.12,0.43-0.2c0.17-0.17-0.11-0.08-0.44,0.11c1.19-0.84-0.36,0.04,0.93-0.79
		c-0.44,0.3-0.52,0.28-0.27,0.06c0.52-0.36,0.88-0.51,1.52-0.91c0.73-0.3-0.89,0.62-1.23,0.9l0.2,0.02
		c0.16-0.13,0.89-0.56,0.74-0.56c0.78-0.5,1.37-0.81,0.86-0.37c0.36-0.23,0.26-0.22,0.27-0.25c0.36-0.23,1.69-1.07,1.79-1.27
		c-0.03,0.06-0.62,0.37-0.97,0.68c-0.18,0.07,0.23-0.35,0.93-0.79c-0.24,0.11-0.83,0.39-1.01,0.47c0.53-0.39,0.26-0.14,0.54-0.31
		l-0.45,0.13l-0.56,0.44c0.33-0.37-1.17,0.6-1.68,0.85c0.96-0.66,1.11-0.67,1.65-0.98c1.1-0.83-0.63,0.4-0.54,0.23
		c0.16-0.13,0.39-0.29,0.68-0.49l-0.9,0.54c0.09-0.09,0.31-0.23,0.37-0.26c-1.15,0.65-1.34,0.95-1.93,1.15
		c-0.39,0.4,0.74-0.41,0.73-0.3c-0.64,0.51-1.32,0.8-1.74,1.07c0.15-0.21,1.57-1.21,0.71-0.73c0.52-0.28,0.89-0.62,1.01-0.58
		c0.54-0.31,0.4-0.32,0.93-0.71c-0.2,0.1-0.98,0.71-0.91,0.57l0.14-0.1l-1.14,0.65c0.41-0.43-1.38,0.65-0.34-0.18l-0.98,0.71
		c-0.15,0.02-0.28-0.02-0.52,0.09c0.58-0.4,0.68-0.4,0.93-0.52c0.05-0.2-0.65,0.15-1.54,0.67c-0.66,0.54-0.59,0.5-1.02,0.88
		c-1.48,0.93,0.77-0.66-0.02-0.24c0.97-0.68,0.86-0.56,1.78-1.24c-0.7,0.44-0.63,0.29-1.25,0.66c0.92-0.68,1.77-1.21,1.95-1.21
		c-0.75,0.63,0.79-0.33,0.06,0.27l0.56-0.45c0.37-0.15,0.24,0,0.76-0.28l-0.15,0.1l1.01-0.66l-0.04-0.02
		c0.57-0.37,1.53-0.94,1.58-0.95c-0.26,0.03-1.81,1.11-2.72,1.68c-0.04-0.11,1.63-1.33,0.74-0.79c0.46-0.33,0.88-0.7,1.36-0.97
		c0.32-0.15-0.25,0.3,0.42-0.16c-0.09-0.02,0.33-0.28,0.13-0.26c-0.88,0.59-1.77,1.13-2.52,1.57c-0.53,0.28-0.58,0.2-0.37-0.02
		c0.15-0.02,1.05-0.55,1.66-1.01c-0.93,0.6,0.58-0.58-0.63,0.29c0.01-0.11-0.15-0.17,0.9-0.92c0.47-0.23-0.11,0.27,0.18,0.15
		c0.01-0.03,0.26-0.23,0.52-0.39l-0.02,0.14c0.45-0.41,0.8-0.64,0.6-0.62c-0.08,0.06-0.24,0.19-0.3,0.22
		C19.3,9.06,19.32,9,19.27,9.01l0.97-0.68c-0.52,0.28,0.58-0.67-0.26-0.25l0.21-0.13c0.1-0.2-1.82,1.14-2.16,1.23
		c0.49-0.3,0.88-0.59,1.33-0.92c-0.54,0.31,0.23-0.27,0.44-0.48c-0.51,0.44-1.07,0.69-1.34,0.94c-0.97,0.69-1.08,0.61-1.02,0.5
		c1.22-0.9,0.86-0.37,2.06-1.32c0.06-0.12-0.67,0.37-0.86,0.56c0.07-0.15,0.11-0.31,0.83-0.89c-1.03,0.61-0.55,0.23-1.83,1.05
		c0.1-0.01,0.99-0.63,0.56-0.25l-0.98,0.6c-0.14-0.01,0.6-0.61,0.66-0.73l0.46-0.24l-0.15,0.1c0.42-0.27,0.27-0.06,0.95-0.54
		c-0.91,0.57-0.12-0.04-0.79,0.33l0.15-0.1c-0.84,0.42,1.19-1.12-0.66,0.08c0.05-0.01-0.59,0.5-0.95,0.73
		c0.4-0.32,0.18-0.26,0.7-0.62l0.2-0.1c0.07-0.14,0.12-0.23-0.08-0.13c-0.65,0.43-1.12,0.78-1.51,0.99
		c0.28-0.36,1.51-0.99,1.97-1.43L17.4,7.69l0.55-0.42c0.4-0.51-1.62,0.73-1.8,0.62c0.97-0.69,1.5-0.88,1.61-0.89
		c0.71-0.56-0.18-0.03-0.04-0.22c0.06-0.05,0.1-0.09,0.12-0.12c0,0-0.01,0.01-0.02,0.01c0.01-0.01,0.01-0.01,0.01-0.01
		c0.03-0.06-0.13,0.02-0.35,0.15c0.11-0.08,0.21-0.16,0.34-0.24c-0.19,0.1-0.6,0.32-0.83,0.44c0.06-0.04,0.12-0.08,0.14-0.11
		c-0.1,0.06-0.17,0.11-0.24,0.16c-0.01,0-0.02,0.01-0.02,0.01c0.53-0.39,0.25-0.15,0.52-0.32l-0.42,0.16l-0.5,0.39
		c-0.01,0.01-0.03,0.02-0.04,0.02c0.01-0.01,0.02-0.03,0.02-0.03c0.33-0.23,0.61-0.44,0.66-0.53c-0.03,0.05-0.52,0.33-0.87,0.62l0,0
		c-0.02,0-0.05,0-0.07,0c0.07-0.04,0.15-0.08,0.24-0.14c0.72-0.55,0.23-0.2-0.16,0.05c0.08-0.08,0.19-0.18,0.34-0.29l0.02-0.01
		l-0.01,0c0.13-0.1,0.29-0.21,0.47-0.33c-0.24,0.12-0.81,0.4-0.99,0.49c0.53-0.39,0.26-0.14,0.53-0.31l-0.44,0.14l-0.18,0.15
		c-0.01-0.04,0.11-0.17,0.42-0.42c-1.32,0.81,0.27-0.44-1.27,0.53c0.12-0.15,0.7-0.44,0.68-0.49c0.01-0.03-0.01-0.05-0.04-0.06
		c0.48-0.31,0.99-0.63,1.02-0.64c-0.11,0.02-0.53,0.3-1.04,0.64c-0.09-0.01-0.28,0.05-0.59,0.19c0.02-0.03-0.03,0-0.14,0.06
		c-0.02,0.01-0.04,0.02-0.06,0.03c0.43-0.32,0.85-0.67,1.29-0.94c0.3-0.16-0.27,0.29,0.39-0.18c-0.08-0.01,0.34-0.28,0.16-0.24
		c-0.36,0.25-0.73,0.49-1.08,0.73c0.05-0.11-0.01-0.12-0.16-0.08c0.02-0.02,0.05-0.04,0.08-0.05c-0.04,0.03-0.05,0.03-0.09,0.06
		c-0.05,0.02-0.11,0.04-0.17,0.07c0.05-0.05,0.13-0.12,0.14-0.14c0.17-0.1,0.3-0.18,0.31-0.18c-0.1,0.01-0.4,0.2-0.78,0.44
		c0.02-0.09,0.12-0.24,0.92-0.83c0.44-0.24-0.14,0.25,0.13,0.12c0.01-0.02,0.26-0.22,0.52-0.39l-0.04,0.12
		c0.46-0.4,0.8-0.64,0.63-0.6c-0.08,0.06-0.24,0.19-0.3,0.22c-0.05,0.01-0.01-0.04-0.06-0.03l0.96-0.69
		c-0.5,0.29,0.61-0.64-0.18-0.19l0.21-0.14c0.12-0.19-1.78,1.17-2.08,1.28c0.48-0.31,0.86-0.6,1.31-0.93
		c-0.52,0.32,0.25-0.26,0.46-0.47c-0.52,0.43-1.05,0.71-1.32,0.95c-0.3,0.22-0.51,0.35-0.66,0.45c0.27-0.24,0.49-0.42,0.57-0.51
		c0.26-0.14,0.41-0.19,1.13-0.76c0.07-0.11-0.64,0.39-0.84,0.57c0.09-0.14,0.15-0.28,0.87-0.86C16.92,4,16.75,4.1,16.63,4.17
		c0.06-0.08,0.12-0.16,0.14-0.22c0.07-0.05,0.12-0.08,0.22-0.15c-0.09,0.06-0.16,0.1-0.22,0.14c0.01-0.05-0.05-0.06-0.31,0.08
		l0.21-0.14c0.04-0.07-0.17,0.05-0.46,0.24c0.08-0.15,1.01-0.88-0.41,0.08c0.01,0-0.04,0.04-0.11,0.1c-0.03-0.02,0.46-0.4,0.62-0.57
		c-0.16,0.14-0.32,0.26-0.49,0.37c0.03-0.06,0.01-0.07-0.11,0c-0.64,0.44-1.1,0.79-1.48,1.01c0.12-0.13,0.37-0.32,0.66-0.51
		c0.26-0.13,0.42-0.18,1.13-0.75c0.02-0.03-0.03-0.01-0.09,0.02c0.09-0.07,0.19-0.14,0.26-0.2l-0.74,0.41l0.55-0.42
		c0.1-0.11,0.06-0.12-0.04-0.09c0.02-0.02,0.03-0.03,0.05-0.05c-0.05,0.03-0.08,0.05-0.12,0.07c-0.41,0.18-1.46,0.82-1.56,0.77
		c0,0,0,0,0,0c0.19-0.14,0.34-0.24,0.5-0.34l0.08-0.04l-0.15,0.1c0.42-0.27,0.26-0.06,0.93-0.55c-0.42,0.27-0.47,0.28-0.47,0.25
		c0.37-0.22,0.6-0.33,0.65-0.34c0.8-0.63-0.42,0.16,0.12-0.3c0.08-0.12-0.59,0.32-1.12,0.69c0.01-0.03,0.05-0.08,0.11-0.15
		c0.15-0.11,0.3-0.22,0.36-0.26c-0.12,0.08-0.22,0.15-0.3,0.2c0.22-0.23,0.43-0.44-0.62,0.25c0.01,0-0.02,0.03-0.06,0.06
		c-0.02,0-0.05,0.01-0.08,0.03l0.59-0.42L14.41,3.8c0.03-0.07,0.04-0.1-0.02-0.09c0.01,0,0.01-0.01,0.02-0.01
		c-0.14,0.06-0.14,0.03-0.02-0.09c0.14-0.1,0.28-0.2,0.37-0.29l-0.09,0.05c0.03-0.02,0.04-0.04,0.08-0.06
		c-0.11,0.07-0.16,0.1-0.23,0.15l-0.29,0.15c-0.03,0-0.02-0.02,0-0.05l0.32-0.25c0.17-0.2-0.07-0.11-0.42,0.05
		c-0.11,0.02-0.34,0.12-0.72,0.33c-0.01-0.04,0.31-0.27,0.65-0.52c0.16-0.08,0.27-0.12,0.31-0.13c0.8-0.64-0.44,0.14,0.09-0.33
		c0.06-0.12-0.55,0.26-1.06,0.62c-0.12,0.06-0.24,0.13-0.35,0.18c0.15-0.13,0.62-0.46,0.73-0.54c-0.86,0.59-0.86,0.49-0.98,0.5
		l0.36-0.23c0.04-0.06,0.08-0.12,0-0.09l0.1-0.08l-0.37,0.2c0.62-0.5-0.01-0.12-0.23-0.03c-0.04-0.01,0.05-0.11,0.24-0.28
		c0.07-0.05,0.15-0.12,0.24-0.19c0.12-0.15-0.22,0.06-0.61,0.32c-0.01-0.02,0.03-0.08,0.03-0.11c0.14-0.1,0.25-0.19,0.3-0.24
		c-0.14,0.05-0.24,0.07-0.36,0.1c-0.02-0.06-0.16-0.04-0.47,0.1c-0.07,0.01-0.15,0.02-0.22,0.03c0.16-0.13,0.4-0.3,0.63-0.48
		c0.19-0.3-0.42,0.02-0.97,0.29c-0.11,0-0.42,0.13-0.72,0.27c-0.03-0.01-0.04-0.04,0-0.1l0.55-0.34c0.06-0.11,0.19-0.26-0.52,0.21
		c1.55-1.2-1.21,0.57,0.43-0.72c0.13-0.19-0.39,0.15-0.87,0.45c-0.07,0.02-0.12,0.03-0.15,0.02c0.31-0.22,0.62-0.44,0.7-0.53
		c-0.09,0.02-0.15,0.03-0.22,0.05c0.01-0.02,0-0.03-0.04-0.02c-0.01,0.01-0.04,0.03-0.06,0.04c-0.05,0.01-0.11,0.03-0.16,0.03
		l0.8-0.58c-0.51,0.29,0.6-0.65-0.21-0.21l0.21-0.14c0.09-0.14-0.94,0.57-1.61,0.98c-0.03,0-0.06,0-0.08,0
		c0.3-0.21,0.59-0.42,0.9-0.64c-0.53,0.32,0.24-0.26,0.45-0.47c-0.51,0.44-1.05,0.7-1.33,0.95C9.47,2.1,9.39,2.15,9.32,2.2
		c-0.03,0-0.06,0-0.09,0c0.01-0.03,0.05-0.09,0.09-0.14C9.35,2.04,9.41,2,9.43,1.99c0,0-0.01,0-0.01,0
		c0.29-0.16,0.42-0.18,1.18-0.78C10.66,1.1,9.94,1.6,9.75,1.78c0.09-0.14,0.13-0.29,0.86-0.87C9.6,1.54,10.08,1.15,8.82,2
		C8.91,1.98,9.8,1.35,9.36,1.73L8.63,2.2C8.56,2.22,8.5,2.25,8.43,2.27c0.11-0.15,0.59-0.55,0.65-0.64l0.45-0.25l-0.15,0.1
		C9.8,1.2,9.64,1.41,10.31,0.92C9.42,1.49,10.2,0.89,9.55,1.27l0.14-0.1c-0.81,0.44,1.21-1.1-0.61,0.11c0.03-0.01-0.3,0.26-0.62,0.5
		c-0.01,0-0.03,0.01-0.06,0.02c0.15-0.12,0.13-0.12,0.05-0.09C8.52,1.65,8.6,1.58,8.84,1.4l0.19-0.11c0.08-0.14,0.13-0.22-0.06-0.11
		C8.33,1.61,7.87,1.97,7.48,2.19c0,0,0.01-0.01,0.01-0.01c0.39-0.27,0.9-0.61,0.84-0.62c-0.3,0.21-0.43,0.3-0.49,0.33
		c0.14-0.1,0.3-0.21,0.47-0.32C8.4,1.51,8.48,1.47,8.55,1.44C8.5,1.46,8.45,1.48,8.4,1.5c0.39-0.26,0.81-0.53,1.04-0.75L8.69,1.16
		l0.55-0.42c0.14-0.16,0.01-0.13-0.21-0.03c0.01,0,0.01-0.01,0.01-0.01C9.02,0.72,9.03,0.71,9.01,0.72
		C8.98,0.74,8.96,0.74,8.93,0.76C8.95,0.7,10-0.09,9.22,0.39c0.2-0.16,0.16-0.17,0.07-0.13C9.37,0.2,9.46,0.13,9.6,0.04
		C8.73,0.61,9.78-0.19,9.21,0.16c0.3-0.19,0.74-0.53,0.49-0.38C9.48-0.05,9.21,0.12,8.91,0.31C8.81,0.37,8.72,0.42,8.6,0.5
		c0.55-0.4,0-0.11,0.99-0.8c-0.55,0.33-1.21,0.79-1.9,1.24c-0.01,0-0.01,0-0.02,0c0.44-0.33,0.37-0.37,1.45-1.08
		C9-0.02,8.81,0.16,9.59-0.37c0.4-0.32-0.34,0.21-0.48,0.26c0.21-0.15,0.71-0.49,1.04-0.72C10-0.76,9.99-0.78,10.16-0.93
		C9.67-0.55,9.31-0.4,8.87-0.07l0.88-0.54c0.1-0.01-0.63,0.44-0.91,0.65c-0.3,0.1-1.39,0.84-2.03,1.19c-0.01,0-0.02,0-0.03,0
		c0.03-0.03,0.06-0.05,0.1-0.08C7.12,1,7.36,0.86,7.57,0.72C7.5,0.75,7.47,0.75,7.46,0.74c0.35-0.22,0.97-0.65,1.11-0.76
		c-0.95,0.58,0.5-0.44,0.67-0.61C9.01-0.44,8.3,0.02,8.03,0.2C7.31,0.58,8.4-0.1,8.87-0.45c-0.23,0,1.1-0.99,0.27-0.56l-0.95,0.7
		l0.95-0.62c-0.47,0.35-1.24,0.86-1.9,1.28C7.18,0.36,7.1,0.38,6.98,0.43C7.01,0.42,7.01,0.41,7.03,0.4L6.92,0.46
		C6.81,0.51,6.67,0.58,6.51,0.66c0-0.01,0.02-0.04,0.05-0.06c0.1-0.07,0.22-0.15,0.37-0.23c0-0.01-0.07,0.01-0.16,0.06
		c0.12-0.09,0.26-0.2,0.41-0.31c0.18-0.11,0.34-0.21,0.44-0.27c0.02-0.06,0.84-0.61,1.11-0.78L8.57-0.88
		C8.84-1.05,9.23-1.3,9.49-1.48c0.32-0.26-0.76,0.43,0-0.12l-0.8,0.53c0.55-0.5,0.67-0.57,0.68-0.69L8.8-1.35
		C7.68-0.69,9.68-2.02,9.16-1.78c-0.4,0.2-0.7,0.36-1.62,1C7.15-0.57,7.7-0.95,8.04-1.19C7.49-0.85,6.48-0.23,7.03-0.65
		C7.34-0.83,7.6-0.98,7.77-1.06c0.92-0.63,0.12-0.19,0.52-0.51c-0.4,0.24-1.32,0.78-2.12,1.26c0.14-0.2-0.62,0.32-1.14,0.63
		c0.52-0.38,1.07-0.79,1.51-1.14c0.3-0.2,0.69-0.43,0.71-0.42C6.98-1.07,6.81-0.94,6.58-0.78c0.75-0.4,1.33-0.92,2.05-1.39
		c-0.21,0.12-0.12,0-0.64,0.38c1.39-0.99-0.91,0.45,0.19-0.34C8.03-2.05,7.59-1.71,7.21-1.5C7.02-1.43,7.7-1.88,7.97-2.09
		C7.55-1.82,7.19-1.67,7.4-1.8C7.02-1.58,6.03-0.83,5.38-0.45C5.1-0.27,4.97-0.19,4.91-0.16c-0.01,0-0.03,0-0.04,0
		C4.89-0.2,5.02-0.31,4.87-0.23c0.63-0.48,0.51-0.29,0.84-0.5L5.17-0.51c0.46-0.36,0.95-0.62,0.86-0.52
		c0.57-0.44-0.05-0.1-0.84,0.42c0.15-0.14-0.04-0.03,0.25-0.26c0.46-0.28,1.83-1.21,2.1-1.34c-0.02,0.1-1.07,0.69-1.22,0.87
		l0.82-0.55C6.7-1.56,7.33-1.96,7.42-1.98C7.23-1.83,7.12-1.78,7-1.71C7.1-1.72,6.7-1.4,7.67-2.01c0.69-0.55-0.42,0.07,0.48-0.58
		L6.89-1.9C6.51-1.64,5.95-1.2,5.36-0.85C6.3-1.51,6.7-1.83,6.83-1.98C5.8-1.26,5.81-1.4,4.99-0.81c0.55-0.34-0.32,0.26-0.4,0.32
		c-0.03,0-0.11,0.05-0.22,0.12C4.33-0.37,4.26-0.35,4.19-0.32c0.12-0.08,0.23-0.17,0.32-0.26c0.48-0.3,1.58-0.98,2.06-1.25
		c0.46-0.32-0.11,0.01,0.4-0.36C6.45-1.8,5.96-1.54,5.75-1.36C5.25-1.11,4.09-0.44,3.77-0.33c1.56-1.04,1.31-0.7,3.12-1.96
		C6.61-2.16,5.86-1.65,5.94-1.74c0.9-0.65,0.02-0.14-0.06-0.16L5.43-1.57c-0.4,0.24-0.15,0.02-0.08-0.06l0.21-0.13L5.24-1.58
		c0.04-0.03,0.09-0.06,0.14-0.1c-0.51,0.31-0.11-0.05-0.44,0.1C4.19-1.07,4.97-1.52,4.91-1.45C4.74-1.33,4.46-1.08,3.92-0.74
		C3.85-0.78,2.91-0.2,2.86-0.27L2.65-0.1C2.47,0.02,2.39,0.06,2.34,0.08c0.02-0.04-0.02-0.04-0.07-0.03c0,0,0,0,0,0
		c0.27-0.23,0.58-0.42,0.89-0.61c0.18-0.11,0.36-0.23,0.51-0.28C3.6-0.81,3.53-0.78,3.46-0.76c0.1-0.07,0.22-0.13,0.31-0.2
		c0.69-0.44-0.02,0.1,0.95-0.54l1.01-0.74C5.05-1.82,5.98-2.49,5.81-2.41L5.37-2.08C4.55-1.53,5.14-1.96,5.24-2.05L4.06-1.23
		c-0.17,0.16,0.9-0.53,0.23-0.04C4.05-1.15,3.67-0.91,3.35-0.71C3.28-0.69,3.22-0.67,3.17-0.66C3.2-0.67,3.25-0.7,3.34-0.76
		C3.52-0.9,3.25-0.74,3.07-0.64c-0.03,0-0.06,0-0.06-0.02c0.31-0.18,0.81-0.47,1.41-0.91L3.49-0.98C3.62-1.09,3.98-1.32,4-1.35
		C4.14-1.48,3.07-0.71,3.26-0.9c0.17-0.12,0.36-0.27,0.57-0.4c-0.02-0.05-0.31,0.18-0.8,0.44c0.02,0.02-0.44,0.34-0.86,0.62
		C2.13-0.21,2.09-0.19,2.04-0.15l0.08-0.06c-0.26,0.18-0.45,0.3-0.61,0.38c0.01-0.02,0-0.02-0.01-0.02l0.88-0.65
		c-0.18,0.08-0.53,0.39-0.7,0.47C1.6,0,1.52,0.03,1.47,0.03c0.09-0.07,0.21-0.16,0.42-0.31L1.42,0.01c0,0,0,0,0,0
		c0.63-0.42,0.12-0.14,0.24-0.24c0.93-0.63,0.06,0.08,1.58-0.94c0.11-0.13,0.59-0.43,1.01-0.7C4.06-1.81,3.15-1.16,2.52-0.76
		C2.9-1.02,2.56-0.89,3.4-1.42c0.02-0.06-0.95,0.58-0.8,0.45c0.37-0.25,0.85-0.57,1.34-0.89c-0.32,0.21,0.03-0.07,0.05-0.1
		C3.82-1.85,3.19-1.44,3.49-1.6C2.75-1.11,3.38-1.63,2.77-1.22c0.84-0.57,0.11-0.16,0.42-0.42C1.21-0.3,4.01-2.11,2.39-1
		C2.23-0.91,2.14-0.86,2.07-0.83c-0.01-0.08-0.1-0.12-0.1-0.21c0.21-0.13,0.45-0.28,0.74-0.49c0.38-0.18-0.19,0.23,0.21,0.02
		c0.29-0.27,0-0.19-0.65,0.19C2.12-1.3,4.18-2.7,3.61-2.41C2.98-1.97,2.83-1.87,2.62-1.7C2.37-1.56,2.57-1.73,2.56-1.74
		C2.2-1.52,2.11-1.42,1.86-1.26C1.83-1.25,1.81-1.24,1.78-1.23c0.08-0.07,0.2-0.17,0.54-0.4l0.06-0.04C1.73-1.31,3.88-2.74,2.6-1.95
		C2.28-1.73,2.7-2,2.51-1.85C2.03-1.51,1.29-1.06,1.06-0.94C1.5-1.23,1.12-1.01,1.25-1.12c0.72-0.5,0.25-0.11,0.76-0.43l0.06-0.11
		l-0.1,0.09L1.21-1.15c0.15-0.07-0.12,0.12-0.42,0.31c0.09-0.1-0.05-0.05-0.09-0.05C0.83-0.99,1-1.11,1.25-1.28
		C0.99-1.11,0.82-1.01,0.69-0.93C0.73-0.97,0.85-1.08,1.17-1.3C0.93-1.14,0.86-1.16,0.69-1.1c0.17-0.13,0.36-0.26,0.58-0.4
		c0.86-0.56,0.46-0.24,0.38-0.14c1.45-1.07-0.9,0.49-0.24-0.03c0.38-0.26,0.82-0.55,0.76-0.48c0.25-0.18-0.78,0.46-0.38,0.14
		c-0.13,0.1-0.4,0.29-0.68,0.47C1.07-1.53,0.94-1.46,0.78-1.36l0.55-0.41C1.45-1.92,0.65-1.35,0.1-1.01l0.37-0.24
		C0.27-1.19-0.64-0.58-0.92-0.48l0.09-0.07C0.23-1.24,0.72-1.5,2.3-2.57C2-2.45,1.48-2.22,1.96-2.6C1.5-2.36,0.42-1.63-0.36-1.09
		c-0.17,0.08-0.06,0,0.12-0.15l0.47-0.28C0.08-1.44-0.07-1.37-0.21-1.3c0.56-0.52,0.3-0.54,0.11-0.54
		c-0.48,0.26-0.39,0.09-0.49,0.07c0.16-0.12,0.35-0.25,0.6-0.43c-0.33,0.19-0.76,0.44-1.11,0.63l0.13-0.09l0.41-0.54
		c-0.33,0.08-0.2-0.18-0.58-0.05l0.01,0c-0.01,0-0.01,0.01-0.01,0.01C-1.27-2.2-1.44-2.11-1.7-1.97l0.56-0.44
		C-1.5-2.18-1.75-2.04-1.97-1.92l0.06-0.1c0.38-0.25,0.53-0.31,0.4-0.2c0.39-0.31,0.16-0.19-1.09,0.6c-0.01,0-0.02,0.01-0.03,0.01
		c0.34-0.28,0.82-0.67,1.36-1.02C-1.51-2.5-1.85-2.25-2.23-2c0.15-0.18-1.2,0.73-1.26,0.72l0,0c-0.13,0.07-0.29,0.16-0.47,0.26
		c0.49-0.33,0.99-0.67,1.48-1c-0.73,0.49-0.13,0.03-0.15,0.02c-0.57,0.4-0.7,0.44-1.07,0.7C-3.87-1.2-4.1-1.06-4.22-1.01
		c0.01-0.02,0-0.02-0.08,0.02C-4.31-1-4.22-1.09-3.96-1.29c0.37-0.26,0.42-0.2,0.61-0.38c0.64-0.51-0.73,0.45-0.01-0.12
		c-0.3,0.23-0.64,0.45-0.95,0.64l-0.08,0.01c0.36-0.27,0.5-0.4,1.34-0.98c-0.99,0.63,0.59-0.51-0.57,0.25
		c0.76-0.48-0.21,0.21-0.31,0.3l-0.18,0.1c0,0-0.01,0.01-0.03,0.03l-1.5,0.96c-0.54,0.42,0.97-0.64,0.99-0.59
		C-5.02-0.8-5.34-0.59-5.64-0.4c-0.23,0.08-0.44,0.15-0.64,0.2c0.11-0.07,0.19-0.13,0.32-0.21C-6.03-0.38-6.2-0.29-6.42-0.15
		c-0.05,0.01-0.1,0.02-0.15,0.03c-0.01,0-0.01,0-0.01,0c-0.65,0.13-0.98,0.03-0.74-0.47l0.57-0.32C-7.2-0.66-7-0.91-6.89-1.03
		l0.07-0.03C-5.82-1.91-8-0.36-6.8-1.32l0.13-0.07c-0.14-0.05,0.98-0.94,0.25-0.56c0.34-0.36,0.91-0.76,1.36-1.15
		c-0.08-0.01-0.78,0.46-0.92,0.56l-0.03,0.06C-6.64-2.01-6.6-2.14-6.92-1.96c-0.99,0.74-2.59,1.87-3.54,2.68
		c0.41-0.2-1.57,1.22-1.32,1.15c1.41-0.94-0.9,0.8,0.39-0.02c-0.97,0.64-0.42,0.42-1.5,1.11c-0.71,0.55,0.95-0.47,0.13,0.2
		c-0.21,0.14-0.43,0.3-0.56,0.37c0.62-0.33-0.59,0.5-0.53,0.54l0.96-0.69c0.33-0.21-0.33,0.28-0.15,0.18
		c0.1-0.09,0.51-0.44,0.93-0.71c0.25-0.14,0.59-0.35,0.62-0.33c-0.37,0.26-0.56,0.37-0.69,0.44c0,0-0.02,0.1-0.47,0.43
		c-0.33,0.21-0.36,0.19-0.92,0.56c-0.2,0.26-0.3,0.23-1.02,0.8c1.12-0.81,0.56-0.3,0.86-0.45c-0.45,0.33-0.18,0.08-0.53,0.32
		c-1.89,1.47,0.47-0.16,0.16,0.22c-0.14,0.1-0.27,0.17-0.34,0.21c0.15-0.08,0.06,0.01-0.04,0.11c-0.33,0.22-0.62,0.42-0.68,0.5
		c0.02-0.03,0.26-0.18,0.53-0.35c-0.03,0.04,0.01,0.03,0.23-0.12c-0.02,0.02-0.05,0.05-0.1,0.09c-0.18,0.13-0.39,0.29-0.66,0.46
		c0.06-0.03,0.13-0.07,0.22-0.12c-0.33,0.25-0.68,0.5-0.62,0.52c1.14-0.84-0.13,0.22,1.12-0.67l-0.67,0.56
		c0.42-0.25,1.02-0.7,1.52-1.04c0.2-0.13,0.38-0.23,0.34-0.18c-0.18,0.12-0.4,0.28-0.69,0.48l0.88-0.55
		c-0.11,0.09-0.32,0.22-0.38,0.26c0.11-0.06,0.17-0.11,0.26-0.16c-0.64,0.49-1.8,1.24-2.27,1.64l0.7-0.47l-0.43,0.37l-0.07,0.04
		c0.26-0.14,0.11,0.03-0.26,0.29c-0.29,0.2-0.32,0.18-0.61,0.38c0.67-0.42-1.51,1.33,0.41,0.03c-0.3,0.25-0.24,0.29-0.84,0.7
		c0.85-0.57-0.14,0.26,0.43-0.09c-0.29,0.2-0.7,0.54-0.45,0.4c0.27-0.25,0.61-0.45,1.09-0.76c-0.56,0.45,0.04,0.14-0.94,0.86
		c0.44-0.26,0.94-0.62,1.47-0.99c0,0,0,0,0,0c0.02-0.02,0.06-0.04,0.09-0.06c0.04-0.03,0.07-0.05,0.11-0.08
		c0.04-0.03,0.09-0.06,0.12-0.08c0.02,0,0.02,0,0.02,0.01c-0.05,0.05-0.09,0.09-0.13,0.12l-0.83,0.56c0.32-0.18-0.03,0.11-0.13,0.23
		c-0.06,0.05-0.12,0.09-0.2,0.14c0.11-0.12,0.28-0.32-0.48,0.23c-0.37,0.34,0.33-0.21,0.49-0.26c-0.21,0.15-0.67,0.52-1.01,0.75
		c0.15-0.07,0.17-0.04,0.02,0.12c0.45-0.4,0.83-0.54,1.25-0.89l-0.88,0.55c-0.11,0,0.48-0.37,0.78-0.61
		c-0.01,0.03,0.06,0.01,0.28-0.11l-0.21,0.13c-0.14,0.16,1.55-0.96,2.01-1.21c-0.02,0.02-0.03,0.03-0.05,0.05
		c-0.42,0.27-0.79,0.52-1.2,0.81c0.53-0.32-0.27,0.25-0.5,0.44c0.08-0.06,0.15-0.1,0.23-0.16c-0.04,0.03-0.09,0.07-0.11,0.09
		c0.19-0.12,0.27-0.16,0.3-0.16c-0.05,0.04-0.09,0.06-0.14,0.1c-0.02,0.03,0.04,0,0.12-0.05c-0.16,0.17-0.78,0.65-0.87,0.76
		c0.21-0.21,0.91-0.68,1.18-0.85c0,0,0,0,0.01,0c-0.13,0.1-0.28,0.23-0.53,0.4c0.24-0.15,0.39-0.23,0.5-0.3
		c-0.23,0.17-0.57,0.41-0.77,0.58c0.28,0.02-0.98,1.06-0.13,0.64l0.9-0.73l-0.93,0.63c0.32-0.26,0.8-0.6,1.29-0.94
		c0.12-0.07,0.29-0.18,0.53-0.34c-0.02,0,0.08-0.07,0.2-0.16c0.21-0.14,0.38-0.25,0.54-0.35c-0.12,0.1-0.14,0.15-0.51,0.39
		l-0.19,0.11c-0.1,0.12-0.17,0.2,0.02,0.09c0.16-0.1,0.27-0.18,0.41-0.27l0.26-0.12c0.14-0.11,0.2-0.16,0.24-0.2
		c0.1-0.06,0.17-0.11,0.26-0.16c-0.06,0.05-0.12,0.11-0.18,0.17c-0.49,0.33-1.14,0.72-1.48,0.99l0.74-0.41l-0.57,0.4
		c-0.06,0.06-0.08,0.09-0.07,0.1c-0.17,0.17-0.77,0.58-1,0.73l0.19-0.03c-0.26,0.17-0.64,0.43-0.91,0.6
		c-0.29,0.28,0.76-0.43,0.04,0.14l0.78-0.54c-0.49,0.53-0.61,0.6-0.57,0.75l0.55-0.42c1.12-0.67-0.84,0.69-0.28,0.47
		c0.18-0.09,0.35-0.17,0.54-0.29c-0.02,0.01-0.03,0.02-0.06,0.04c0.66-0.42-1.58,1.29,0.35-0.01c-0.31,0.25-0.26,0.27-0.87,0.68
		c0.85-0.57-0.17,0.24,0.39-0.11c-0.29,0.2-0.72,0.54-0.47,0.39c0.29-0.24,0.62-0.45,1.1-0.76c-0.58,0.44,0.01,0.12-0.98,0.83
		c0.58-0.36,1.28-0.87,2.01-1.36c-0.57,0.44-0.38,0.4-1.54,1.2c0.12-0.11,0.3-0.3-0.46,0.25c-0.39,0.32,0.34-0.21,0.48-0.27
		c-0.21,0.15-0.7,0.5-1.02,0.74c0.14-0.07,0.16-0.05-0.01,0.1c0.48-0.39,0.83-0.54,1.26-0.88l-0.87,0.55
		c-0.11,0.01,0.62-0.45,0.89-0.66c0.14-0.05,0.45-0.24,0.79-0.46c-0.24,0.19-0.47,0.38-0.74,0.56c0.21-0.12,0.15,0.02,0.64-0.38
		c-0.21,0.16-0.3,0.24-0.36,0.3c-0.01,0.01-0.04,0.03-0.05,0.03c0.02-0.01,0.02-0.01,0.03-0.02c-0.07,0.08-0.02,0.07,0.09,0.01
		c-0.26,0.21-0.69,0.53-0.77,0.62c0.2-0.18,0.8-0.58,1.11-0.78c0.1-0.05,0.16-0.06,0.1,0c-0.24,0.17-0.61,0.42-0.83,0.6
		c0.24,0-1.06,1.01-0.25,0.57l0.93-0.71l-0.93,0.63c0.68-0.52,2.07-1.44,2.69-1.84c-0.31,0.22-0.08,0.14-0.62,0.49l0.46-0.24
		c0.39-0.29,0.18-0.19,0.64-0.48c-0.27,0.21-0.41,0.39-0.99,0.75c0,0.04,0.3-0.13,0.74-0.43c0.03-0.01,0.06-0.02,0.09-0.04
		c-0.15,0.12-0.54,0.38-0.91,0.62c-0.09,0.04-0.35,0.2-0.41,0.21c0.18-0.16,0.29-0.2,0.42-0.27c-0.13,0,0.24-0.34-0.71,0.28
		c-0.44,0.4-0.07,0.24-0.05,0.31c-0.25,0.19-0.74,0.53-0.94,0.66l0.17-0.05c-0.26,0.17-0.64,0.43-0.91,0.6
		c-0.31,0.26,0.75-0.44,0.01,0.12l0.79-0.53c-0.53,0.51-0.66,0.58-0.65,0.7l0.56-0.41c1.1-0.68-0.87,0.68-0.34,0.44
		c0.4-0.21,0.69-0.37,1.6-1.01c0.37-0.22-0.16,0.17-0.49,0.42c0.54-0.35,1.54-0.98,1-0.55c-0.31,0.18-0.56,0.33-0.73,0.42
		c-0.91,0.64-0.12,0.19-0.51,0.52c0.44-0.27,1.57-0.96,2.42-1.48c0.09-0.04,0.18-0.07,0.21-0.06l0.42-0.35
		c0.2-0.12,0.24-0.12,0.23-0.08c-0.52,0.39-1.09,0.84-1.53,1.2c-0.29,0.2-0.68,0.44-0.7,0.43c0.26-0.17,0.43-0.3,0.66-0.46
		c-0.74,0.41-1.3,0.93-2.01,1.41c0.21-0.12,0.12,0,0.63-0.38c-1.36,1.01,0.9-0.46-0.17,0.35c0.14-0.1,0.57-0.43,0.95-0.65
		c0.19-0.07-0.47,0.39-0.74,0.6c0.42-0.27,0.77-0.43,0.57-0.29c0.35-0.21,1.22-0.88,1.86-1.29c-0.05,0.06-0.08,0.11-0.11,0.15
		c-0.03,0.02-0.05,0.02-0.09,0.05l0.09-0.04c-0.04,0.08-0.01,0.1,0.13,0.05c-0.33,0.23-0.59,0.37-0.53,0.29
		c-0.55,0.45,0.05,0.11,0.84-0.43c-0.14,0.14,0.05,0.03-0.24,0.27c-0.46,0.29-1.8,1.23-2.07,1.36c0.02-0.1,1.06-0.71,1.2-0.88
		l-0.81,0.56c0.43-0.34-0.19,0.07-0.28,0.09c0.19-0.15,0.29-0.2,0.42-0.27c-0.11,0.01,0.28-0.32-0.67,0.3
		c-0.68,0.56,0.43-0.07-0.46,0.59l1.25-0.7c0.38-0.26,0.93-0.71,1.51-1.07c-0.93,0.67-1.32,1-1.44,1.15
		c0.65-0.47,0.88-0.58,1.17-0.76c-0.05,0.05-0.01,0.04,0.07,0.01c-0.38,0.24-0.76,0.47-0.99,0.6c-0.45,0.32,0.11-0.01-0.39,0.36
		c0.51-0.4,0.99-0.67,1.2-0.84c0.11-0.06,0.27-0.14,0.43-0.23c0,0.01-0.05,0.07-0.25,0.23l0.74-0.5c0.01-0.01,0.02-0.01,0.03-0.02
		c-0.1,0.12-0.18,0.21-0.26,0.28c-0.42,0.24-0.77,0.43-1.81,1.19c0.27-0.13,1.01-0.65,0.94-0.55c-0.89,0.66-0.01,0.14,0.07,0.16
		l0.43-0.34c0.04-0.03,0.05-0.03,0.08-0.05c0,0.02-0.01,0.04,0,0.05l0.13-0.1c-0.02,0.04-0.1,0.11-0.12,0.15l-0.21,0.14l0.31-0.18
		c-0.04,0.03-0.09,0.06-0.14,0.1c0.21-0.13,0.25-0.13,0.27-0.11c-0.08,0.08-0.1,0.13,0.04,0.08c0.2-0.09,0.37-0.18,0.6-0.31
		c-0.07,0.04-0.14,0.09-0.23,0.16l-0.99,0.75c0.67-0.42-0.24,0.27-0.08,0.18l0.43-0.34c0.81-0.56,0.23-0.12,0.13-0.03l1.16-0.83
		c0.16-0.17-0.89,0.54-0.23,0.04c0.16-0.08,0.38-0.21,0.6-0.36c-0.07,0.06-0.15,0.12-0.21,0.17c0.28-0.17,0.67-0.42,0.93-0.56
		c-0.2,0.13-0.09,0.04-0.38,0.23c-0.11,0.09-0.04,0.05,0.08-0.01c-0.01,0.01-0.01,0.01-0.02,0.01c0.02-0.01,0.02-0.01,0.04-0.02
		c0.12-0.07,0.28-0.16,0.32-0.17c-0.01,0.01-0.02,0.04-0.04,0.06c0,0,0,0-0.01,0c-0.26,0.14-0.48,0.26-0.63,0.33
		c-0.32,0.23-0.41,0.32-0.43,0.37c-0.12,0.09-0.23,0.15-0.36,0.25l0.36-0.24c0.02,0.04,0.2-0.02-0.01,0.18
		c0.27-0.16,0.79-0.46,1.35-0.79c-0.09,0.08-0.15,0.13-0.17,0.16c-0.08,0.07-0.18,0.14-0.32,0.25c0.1-0.06,0.22-0.15,0.33-0.22
		c0.01,0,0.02,0,0.05-0.02c-0.11,0.07-0.23,0.16-0.4,0.27c-0.1,0.13-0.58,0.44-0.99,0.71c0.19-0.07,1.08-0.73,1.7-1.14
		c-0.09,0.06-0.14,0.1-0.17,0.13c-0.08,0.04-0.23,0.14-0.5,0.34c-0.3,0.27,0.09-0.03,0.34-0.18c-0.08,0.07-0.23,0.18-0.53,0.38
		c-0.01,0.02,0.07-0.03,0.18-0.09c-0.18,0.13-0.36,0.27-0.51,0.38c0.05-0.02,0.06-0.02,0.08-0.02c-0.09,0.06-0.18,0.13-0.27,0.19
		c0.31-0.21-0.03,0.08-0.05,0.1c0.06-0.05,0.18-0.13,0.3-0.21c-0.02,0.02-0.01,0.02-0.04,0.05c0.21-0.19,0.41-0.32,0.6-0.44
		c0,0,0.01,0,0.01,0c-0.36,0.28-0.72,0.58-1.13,0.85c0.22-0.11,0.16,0.02,0.65-0.37c-0.51,0.4-0.48,0.42-0.32,0.35
		c-0.12,0.14-0.08,0.17,0.49-0.2c0.01,0.02-0.04,0.08-0.26,0.25c0.07-0.05,0.21-0.16,0.38-0.29c-0.14,0.14-0.21,0.24-0.68,0.56
		c0.49-0.32,0.39-0.19,0.31-0.08l0,0c-0.06,0.09-0.1,0.16,0.15,0.01c-0.29,0.2-0.71,0.55-0.45,0.41c0.18-0.17,0.42-0.33,0.69-0.5
		c-0.04,0.09,0.04,0.09,0.1,0.09c-0.04,0.07-0.14,0.18-0.61,0.52c0.18-0.1,0.38-0.24,0.57-0.37c-0.05,0.05-0.13,0.11-0.24,0.2
		l0.58-0.29c0.06-0.02,0.26-0.14,0.3-0.15c-0.15,0.12-0.36,0.27-0.67,0.48c0.1-0.12,0.26-0.33-0.5,0.22
		c-0.36,0.34,0.34-0.2,0.51-0.25c-0.22,0.14-0.67,0.52-1.01,0.74c0.15-0.07,0.19-0.03,0.04,0.13c0.45-0.41,0.85-0.54,1.26-0.88
		l-0.9,0.54c-0.14-0.01,0.61-0.45,0.87-0.67c0.12-0.02,0.34-0.14,0.59-0.29c-0.21,0.21-0.28,0.28-0.26,0.38l0.55-0.42
		c0.07-0.04,0.1-0.06,0.15-0.09c0.02,0.01,0.05,0.03-0.11,0.17c-0.06,0.04-0.12,0.08-0.18,0.13c0.01,0,0.01,0,0.02-0.01
		c-0.16,0.12-0.3,0.22-0.35,0.27c0.08-0.05,0.12-0.07,0.17-0.09c-0.1,0.09-0.13,0.14,0.01,0.08c0.01-0.01,0.02-0.01,0.03-0.02
		c-0.23,0.21-0.71,0.59-0.79,0.69c0.2-0.21,0.92-0.68,1.2-0.84c0.75-0.36-0.35,0.31-0.78,0.69c0.31,0.05-0.94,1.09-0.06,0.69
		l0.9-0.73l-0.94,0.63c0.66-0.54,2.07-1.43,2.7-1.83c-0.15,0.11-0.16,0.15-0.2,0.21c-0.45,0.32-0.87,0.67-1.36,1.01
		c0.21-0.12,0.14,0.01,0.64-0.38c-0.84,0.65-0.26,0.3,0.02,0.16c-0.07,0.04-0.14,0.08-0.19,0.11c0.01,0.08-0.8,0.64-1.08,0.81
		l0.2-0.02c-0.26,0.17-0.65,0.42-0.92,0.59c-0.29,0.28,0.78-0.41,0.06,0.16l0.8-0.53c-0.47,0.55-0.6,0.62-0.54,0.77l0.55-0.42
		c1.14-0.65-0.83,0.7-0.25,0.5c0.43-0.19,0.75-0.33,1.65-0.98c0.39-0.21-0.14,0.18-0.46,0.44c0.55-0.34,1.58-0.95,1.07-0.5
		c-0.33,0.17-0.59,0.31-0.77,0.39c-0.9,0.65-0.06,0.23-0.43,0.57c0.48-0.27,1.73-0.97,2.62-1.47c0.25-0.19,0.55-0.41,0.87-0.63
		c0.05,0.02-0.01,0.13,0.21,0.03c0.73-0.53-0.04-0.06,0.02-0.14c0.06-0.05,0.15-0.13,0.26-0.22c0.03-0.02,0.05-0.04,0.08-0.05
		c0.02,0.06,0.22,0.01,0.53-0.14c-0.04,0.05-0.09,0.1-0.16,0.16c-0.07,0.04-0.2,0.12-0.48,0.32l-0.83,0.65
		c-0.1,0.06-0.19,0.12-0.26,0.14c0.25-0.22,1.01-0.77,0.68-0.6c-0.55,0.42-1.14,0.92-1.58,1.33c-0.29,0.2-0.7,0.43-0.74,0.41
		c0.27-0.17,0.44-0.3,0.66-0.46c-0.79,0.38-1.29,0.94-2.01,1.42c0.22-0.11,0.16,0.03,0.66-0.37c-1.33,1.03,0.98-0.41-0.07,0.42
		c0.14-0.1,0.56-0.45,0.96-0.65c0.21-0.05-0.45,0.41-0.7,0.63c0.42-0.27,0.82-0.39,0.61-0.26c0.39-0.21,1.32-1,1.99-1.37
		c0.99-0.63,0.25-0.03,0.56-0.17c-0.59,0.5-0.52,0.28-0.87,0.48l0.62-0.18c-0.43,0.38-0.94,0.63-0.88,0.51
		c-0.52,0.47,0.12,0.15,0.91-0.38c-0.12,0.15,0.07,0.05-0.2,0.3c-0.47,0.27-1.82,1.22-2.11,1.33c-0.03-0.13,1.07-0.69,1.18-0.9
		l-0.81,0.56c0.42-0.35-0.22,0.05-0.32,0.07c0.18-0.16,0.29-0.2,0.43-0.27c-0.14-0.01,0.23-0.35-0.75,0.25
		c-0.63,0.59,0.53,0-0.34,0.67l1.33-0.64c0.37-0.26,0.9-0.73,1.5-1.07c-0.91,0.68-1.28,1.02-1.37,1.19c1-0.74,1.05-0.56,1.84-1.16
		c-0.56,0.34,0.28-0.28,0.36-0.34c0.14,0.01,0.96-0.66,1.06-0.67c-0.08,0.26-0.66,0.46-0.89,0.81c-0.49,0.3-1.6,0.97-2.11,1.22
		c-0.45,0.32,0.14,0.01-0.34,0.39c0.5-0.41,1-0.66,1.2-0.85c0.54-0.23,1.74-0.88,2.11-0.95c-1.54,1.05-1.38,0.65-3.14,1.94
		c0.3-0.12,1.04-0.64,0.98-0.52c-0.87,0.67,0.05,0.18,0.17,0.23l0.42-0.35c0.41-0.24,0.19,0,0.15,0.09l-0.21,0.13l0.33-0.17
		c-0.03,0.03-0.08,0.07-0.13,0.11c0.52-0.3,0.18,0.09,0.53-0.04c0.74-0.52-0.06-0.08-0.01-0.16c0.16-0.13,0.39-0.4,0.95-0.74
		c0.11,0.07,1.07-0.5,1.17-0.41l0.19-0.18c0.24-0.15,0.33-0.18,0.37-0.18c-0.07,0.05-0.13,0.1-0.21,0.15
		c0.08-0.03,0.18-0.07,0.27-0.1c0,0.01,0,0.02,0.01,0.02c-0.41,0.43-1.11,0.67-1.48,1.02c-0.7,0.43-0.03-0.13-0.98,0.52l-0.97,0.77
		c0.68-0.41-0.19,0.3-0.01,0.22l0.42-0.35c0.81-0.56,0.25-0.11,0.15-0.02l1.14-0.84c0.14-0.18-0.93,0.51-0.29,0
		c0.48-0.19,1.4-0.87,1.56-0.8c-0.45,0.32-0.19,0.1-0.55,0.33c-0.27,0.25,0.72-0.38,0.42-0.07c-0.33,0.17-0.85,0.45-1.43,0.93
		l0.92-0.6c-0.11,0.12-0.46,0.35-0.48,0.38c-0.12,0.15,0.91-0.65,0.75-0.44c-0.16,0.13-0.34,0.28-0.55,0.42
		c0.06,0.08,0.33-0.17,0.84-0.42c-0.07-0.05,1.27-0.99,1.49-1.04c-0.04,0.17,0.78-0.31-0.26,0.52l0.62-0.37
		c-0.86,0.56-0.22,0.25-0.33,0.36c-0.9,0.65-0.13-0.12-1.62,0.92c-0.07,0.15-0.56,0.45-0.98,0.71c0.21-0.05,1.08-0.72,1.72-1.12
		c-0.37,0.26,0.01,0.16-0.83,0.7c0.01,0.08,0.96-0.57,0.84-0.42c-0.37,0.25-0.84,0.58-1.32,0.91c0.32-0.21-0.01,0.09-0.02,0.12
		c0.16-0.13,0.8-0.53,0.49-0.38c0.73-0.49,0.16,0.06,0.76-0.36c-0.82,0.58-0.05,0.2-0.34,0.48c1.94-1.37-0.85,0.45,0.73-0.68
		c0.74-0.41,0.32,0.13,1.3-0.4c-0.26,0.33-0.74,0.52-1.44,1.04c-0.42,0.16,0.13-0.26-0.3-0.07c-0.24,0.3,0.11,0.26,0.78-0.12
		c0.19,0-1.83,1.43-1.22,1.17c0.61-0.45,0.76-0.55,0.95-0.74c0.26-0.14,0.07,0.05,0.11,0.07c0.42-0.26,0.43-0.37,0.82-0.58
		c-0.1,0.1-0.14,0.18-0.58,0.48l-0.07,0.04c0.69-0.32-1.43,1.12-0.13,0.34C1.25,17.03,0.83,17.3,1,17.14
		c0.47-0.35,1.21-0.79,1.46-0.9c-0.44,0.3-0.04,0.08-0.15,0.21c-0.69,0.51-0.29,0.09-0.79,0.42L1.5,17l0.09-0.09l0.79-0.42
		c-0.3,0.12,0.86-0.64,0.97-0.68c-0.07,0.15-0.15,0.29-0.96,0.85c0.81-0.56,0.87-0.48,1.1-0.56c0.22-0.24,0.68-0.49,0.96-0.65
		l-0.7,0.63c-0.33,0.09-0.69,0.52-1.26,0.88c-0.86,0.56-0.5,0.22-0.44,0.11c-1.38,1.11,0.95-0.46,0.34,0.1
		c-0.37,0.26-0.81,0.56-0.77,0.47c-0.24,0.19,0.8-0.45,0.44-0.11c0.24-0.19,0.95-0.74,1.33-0.91l-0.83,0.69
		c-0.1,0.2,1.01-0.66,1.51-0.91l0.58-0.48c0.81-0.56,0.11,0.07,1-0.55c-0.02-0.05-0.74,0.41-0.53,0.2c0.84-0.62,0.53-0.28,1.02-0.58
		c-0.27,0.33-0.32,0.34-0.92,0.87c-1.34,0.94-1.79,1.08-3.52,2.31c0.33-0.09,0.92-0.3,0.47,0.11c0.49-0.22,1.55-0.97,2.3-1.52
		c0.18-0.07,0.08,0.02-0.09,0.18L3.9,17.2c0.55-0.23,1.07-0.51,1.16-0.41c0.3-0.12,1.07-0.7,1.69-1.15l0.22-0.05l0.16-0.13
		C8,14.87,7.78,15.12,7.8,15.17c-0.37,0.26-0.49,0.3-0.71,0.46c-0.27,0.25-0.12,0.23,0.29-0.01c-0.37,0.26-1.23,0.82-1.03,0.61
		c0.09-0.06,0.22-0.16,0.31-0.23l-0.58,0.28c0.56-0.25-0.32,0.45-1.21,1.07c0.56-0.25,0.83-0.7,1.3-0.86
		c-1.58,1.32,0.79-0.15-1.61,1.66c0.59-0.31,1.54-0.86,1.71-0.82c0.74-0.52,0.36-0.15,1.27-0.8c0.86-0.75-1.64,0.87-0.36-0.15
		c-0.39,0.21-1.01,0.66-1.43,0.93c-0.1,0.01-0.06-0.07,0.39-0.4c0.56-0.26,1.83-1.24,1.99-1.18c0.61-0.45,0.28-0.36,0.4-0.51
		c0.36-0.23,0.74-0.52,1-0.74c0.63-0.4,1.22-0.71,1.78-1.05c-0.34,0.24-0.54,0.38-0.75,0.52l1.19-0.65c-0.41,0.34-0.95,0.74-1.37,1
		c-0.15,0.21,0.97-0.41-0.14,0.37c0.27-0.06,0.63-0.48,0.94-0.71l0.06-0.03l-0.19,0c1.28-0.91-0.2,0.3,1.05-0.56
		c2.36-1.63-0.6,0.62-0.16,0.4L10.2,14.9l0.44-0.21c-0.7,0.43-1.81,1.21-2.56,1.66c0.05,0.1-0.33,0.55,0.05,0.38
		c-0.55,0.42-1.08,0.81-1.66,1.2c1.16-0.68-0.39,0.48-0.33,0.56c0.72-0.38,0.77-0.66,1.66-1.2c-0.4,0.32-0.01,0.11,0.19,0.01
		c-0.34,0.2,0.13-0.26,0.35-0.51c0.02,0.05,0.84-0.53,1.2-0.76l0.09-0.18c1.03-0.72,0.18,0.01,0.74-0.33
		c-0.93,0.63-0.96,0.65-1.9,1.28c0.44-0.21,0.55-0.14,0.04,0.3c-0.34,0.28-0.49,0.3-0.77,0.47C7.14,18,8.19,17.34,7.43,17.89
		c-0.58,0.39-0.1,0.01-0.3,0.11l-0.08,0.34c-0.37,0.26-0.54,0.31-0.43,0.18c-0.37,0.34-0.12,0.23,1.22-0.6
		C7.55,18.23,7.09,18.66,6.52,19.03z M-1.94,12.42c0.03-0.02,0.06-0.03,0.09-0.05c-0.09,0.07-0.17,0.13-0.22,0.18
		C-2.15,12.59-2.07,12.52-1.94,12.42z M-8.44,12.98c-0.02-0.11,0.78-0.55,1.07-0.8c0,0,0.01,0,0.01-0.01
		c-0.05,0.04-0.1,0.08-0.14,0.12c-0.09,0.06-0.17,0.12-0.22,0.15l0.08-0.02c-0.05,0.05-0.09,0.09-0.13,0.14
		c-0.15,0.1-0.29,0.2-0.44,0.3C-8.31,12.91-8.4,12.96-8.44,12.98z M13.8,9.19c0.28-0.2,0.52-0.35,0.78-0.5
		c-0.04,0.04-0.08,0.07-0.13,0.11c-0.25,0.13-0.51,0.36-0.76,0.51C13.7,9.27,13.74,9.24,13.8,9.19z M12.74,9.58
		c-0.03,0-0.02-0.02,0.13-0.13C13,9.37,13.1,9.31,13.19,9.25C13.06,9.35,12.92,9.45,12.74,9.58z M13.82,8.86
		c-0.06,0.03-0.11,0.07-0.16,0.1C13.58,9,13.5,9.05,13.43,9.1c-0.09,0.05-0.18,0.1-0.25,0.15c0-0.01,0.02-0.02,0.03-0.02
		c0.02-0.02,0.03-0.02,0.06-0.04c-0.02,0.02-0.03,0.02-0.05,0.03c0.09-0.09,0.3-0.25,0.51-0.42c0.12-0.07,0.25-0.15,0.39-0.23
		c-0.03,0.05,0.13-0.05,0.32-0.17c-0.07,0.07-0.08,0.09-0.05,0.1C14.2,8.61,14.01,8.73,13.82,8.86z M14.21,8.68
		c0.08-0.05,0.15-0.1,0.23-0.15c-0.08,0.06-0.16,0.12-0.25,0.19C14.2,8.71,14.23,8.68,14.21,8.68z M12.01,10.31
		c0.09-0.07,0.18-0.15,0.33-0.26c-0.49,0.4,0.3-0.13,0.43-0.2c0.16-0.17-0.1-0.08-0.43,0.12c0.16-0.11,0.26-0.19,0.34-0.25
		c0.25-0.14,0.49-0.27,0.75-0.43c-0.12,0.04-0.69,0.41-0.42,0.16l0.3-0.21l0.14,0.01L13.38,9.3c0.03-0.02,0.05-0.04,0.08-0.06
		l0.02,0c0.01,0,0.02-0.02,0.03-0.02c0,0,0,0,0,0c0.02-0.01,0.01-0.01,0.02-0.02c0.11-0.08,0.32-0.22,0.49-0.34
		c0,0.01,0.06-0.02,0.29-0.16c-0.32,0.24-0.66,0.5-1,0.76c-0.11,0.07-0.16,0.11-0.19,0.15C13,9.7,12.89,9.78,12.78,9.87
		C12.36,10.15,12.15,10.26,12.01,10.31z M-10.83,10.28l-0.12,0.08c0.05-0.03,0.09-0.07,0.14-0.1
		C-10.82,10.27-10.82,10.28-10.83,10.28z M-11,10.39l0.1-0.06c-0.09,0.07-0.17,0.12-0.24,0.16C-11.1,10.46-11.04,10.43-11,10.39z
		 M15.61,7.43C15.62,7.42,15.61,7.43,15.61,7.43c0.01-0.01,0.02-0.02,0.03-0.02L15.61,7.43z M15.21,6.4
		c-0.04,0.02-0.09,0.04-0.13,0.06c0.12-0.07,0.22-0.14,0.32-0.2C15.35,6.3,15.28,6.35,15.21,6.4z M15.52,5.35
		c-0.24,0.15-0.31,0.15-0.31,0.11c0.09-0.07,0.21-0.16,0.33-0.24L15.52,5.35z M15.26,4.34c-0.03,0.03-0.07,0.06-0.09,0.08
		c0-0.01,0.01-0.01,0.01-0.02C15.2,4.37,15.23,4.36,15.26,4.34z M12.81,4.76c0.02-0.03,0.09-0.07,0.13-0.11
		c0.36-0.24,0.71-0.46,1.04-0.67C13.51,4.31,13.12,4.59,12.81,4.76z M9.81,2.86c0.2-0.14,0.39-0.27,0.24-0.14
		C9.96,2.78,9.88,2.82,9.81,2.86z M9,0.53c-0.1,0.06-0.16,0.1-0.3,0.19c0.07-0.05,0.12-0.09,0.17-0.13C8.93,0.56,8.97,0.54,9,0.53z
		 M4.84,0.44C4.78,0.47,4.73,0.5,4.69,0.52c0,0,0-0.01,0.01-0.01c0.22-0.16,0.53-0.37,0.79-0.56C5.52-0.07,5.56-0.1,5.59-0.11
		C5.41,0.03,4.99,0.32,4.84,0.44z M2.85-0.45c-0.01,0-0.04,0.02-0.05,0.02c0.05-0.03,0.06-0.04,0.1-0.07
		C2.88-0.48,2.87-0.47,2.85-0.45z M-0.33-0.72l-0.15,0.11l-0.08,0.04L-0.33-0.72z M-13.3,4.76c0.18-0.12,0.32-0.21,0.41-0.25
		C-13.05,4.61-13.19,4.7-13.3,4.76z M-14.21,9.33c-0.03,0.02-0.04,0.03-0.07,0.05C-14.3,9.39-14.3,9.4-14.31,9.4
		C-14.29,9.38-14.24,9.35-14.21,9.33z M-12.79,9.32c-0.15,0.1-0.3,0.19-0.39,0.24C-13.04,9.46-12.91,9.39-12.79,9.32z M-10.97,10.34
		c-0.08,0.07-0.15,0.13-0.22,0.19c-0.04,0.03-0.1,0.06-0.13,0.08C-11.24,10.54-11.11,10.44-10.97,10.34z M-10.98,11.02
		C-10.98,11.02-10.98,11.02-10.98,11.02C-10.99,11.02-10.99,11.02-10.98,11.02C-10.99,11.02-10.98,11.02-10.98,11.02z M-10.48,11.13
		l0.1-0.02c-0.09,0.06-0.2,0.13-0.31,0.2c0,0,0,0,0.01-0.01C-11.07,11.57-10.73,11.31-10.48,11.13z M-9.42,11.47
		c-0.45,0.3-0.3,0.15-0.43,0.22c0.2-0.13,0.43-0.29,0.76-0.52c0.25-0.14,0.11-0.02-0.11,0.15C-9.27,11.37-9.36,11.42-9.42,11.47z
		 M-8.34,11.35c0.12-0.09,0.23-0.17,0.31-0.23c0.07-0.05,0.13-0.09,0.2-0.13c0.1-0.06,0.2-0.13,0.3-0.2c0,0-0.01,0-0.01,0.01
		l0.08-0.05c0.02-0.01,0.05-0.03,0.07-0.04c-0.01,0.02-0.03,0.05-0.02,0.05c0.01,0,0.01-0.01,0.01-0.01c0,0.01,0.02,0,0.04,0
		c-0.06,0.06-0.13,0.12-0.22,0.19C-7.96,11.18-7.71,10.93-8.34,11.35z M-8.54,11.67c0.01,0,0.02-0.01,0.03-0.02
		C-8.52,11.66-8.54,11.67-8.54,11.67l0.21-0.13c0.09-0.05,0.14-0.08,0.1-0.04c-0.21,0.15-0.46,0.32-0.71,0.5
		C-8.94,11.95-8.76,11.82-8.54,11.67z M-2.54,12.92c-0.21,0.09-0.17,0.01-0.13-0.05c0.19-0.13,0.38-0.24,0.56-0.36
		c-0.1,0.1-0.29,0.26,0.01,0.07c-0.04,0.03-0.08,0.07-0.1,0.1C-2.31,12.75-2.42,12.83-2.54,12.92z"/>
</g>
<g>
	<g>
		<defs>
			<rect id="SVGID_6_" x="0" y="0" width="25" height="9"/>
		</defs>
		<clipPath id="SVGID_7_">
			<use xlink:href="#SVGID_6_"  style="overflow:visible;"/>
		</clipPath>
	</g>
</g>
</svg>
